<svg width="20" height="20" fill="none" xmlns="http://www.w3.org/2000/svg"><path id="instagram" fill="#FFF" fill-opacity="0" d="M0 0h20v20H0z"/><path id="Subtract" d="M1 14.244V3.57C1 2.384 2.384 1 3.767 1h11.466C16.814 1 18 2.582 18 4.36v10.675A3.07 3.07 0 0 1 14.837 18H4.953C2.78 18 1 16.419 1 14.244ZM14.047 3.57a.988.988 0 1 0 0 1.976.988.988 0 0 0 0-1.976ZM5.342 9.5a4.158 4.158 0 1 1 8.316 0 4.158 4.158 0 0 1-8.316 0Zm1.2 0a2.958 2.958 0 1 1 5.916 0 2.958 2.958 0 0 1-5.916 0Z" clip-rule="evenodd" fill="#1C1B29" fill-opacity="1" fill-rule="evenodd"/></svg>