<svg width="20" height="20" fill="none" xmlns="http://www.w3.org/2000/svg"><path id="twitter" fill="#FFF" fill-opacity="0" d="M0 0h20v20H0z"/><path id="Vector 2" d="M0 16.373c.912.068 2.947.082 3.79-.406a25.098 25.098 0 0 0 1.894-1.22c-.982-.27-3.116-1.26-3.79-3.05h1.264C2.316 11.088.632 9.828.632 8.04l1.473.406C1.474 7.43-.126 4.867 1.053 2.753c0 0 4.842 4.066 8.631 4.473-.21-1.423-.547-3.172 1.474-4.473 2.526-1.626 5.474-.203 5.684.407.169.487 1.754-.34 2.526-.813l-1.052 2.032H20l-1.895 2.034c.21 1.558-.084 5.326-2.947 7.928C11.579 17.593 9.474 18 6.526 18 3.58 18 .421 16.78 0 16.373Z" fill="#1C1B29" fill-opacity="1" fill-rule="evenodd"/></svg>